<svg xmlns="http://www.w3.org/2000/svg" viewBox="0 0 32 32">
  <path
    fill="currentColor"
    d="M24.068,24.763c2.366-2.179,3.857-5.293,3.857-8.763s-1.491-6.584-3.857-8.763v.016h-9.928v-1.593h9.928v-1.586h-9.928v.159c-5.701.895-10.067,5.814-10.067,11.766s4.366,10.872,10.067,11.766v-3.02h0s9.928,0,9.928,0h0v.017ZM14.141,8.846h9.928v3.179h-9.928v-3.179ZM14.141,16.796v-3.186h9.928v4.771h-9.928v-1.586ZM14.141,23.153v-1.593h9.928v1.593h-9.928Z" />
  <rect
    x="14.141"
    y="5.66"
    width="9.928"
    height="1.593"
    fill="var(--m__icon-yellow-color)" />
  <path
    fill="var(--m__icon-yellow-color)"
    d="M14.141,10.439v.205c-2.22.77-3.815,2.875-3.815,5.356s1.596,4.586,3.815,5.356v-4.567h9.928v-1.586h-9.928v-3.179h9.928v-3.179h-9.928v1.593Z" />
  <rect
    x="14.141"
    y="21.561"
    width="9.928"
    height="1.593"
    fill="var(--m__icon-yellow-color)" />
  <rect
    x="14.141"
    y="26.339"
    width="9.928"
    height="1.586"
    fill="var(--m__icon-yellow-color)" />
</svg>
