<svg xmlns="http://www.w3.org/2000/svg" viewBox="0 0 32 32">
  <path
    fill="currentColor"
    d="M21.06,27.197h-1.272v-2.029h5.731s1.526,0,1.526,0v-1.907c1.376-2.084,2.181-4.577,2.181-7.261,0-4.706-2.466-8.828-6.168-11.172h5.259v-2.037h-7.257v.99c-1.559-.646-3.267-1.007-5.06-1.007-7.304,0-13.226,5.921-13.226,13.226s5.921,13.226,13.226,13.226c1.796,0,3.501-.371,5.06-1.023v-1.007ZM27.045,17.027h-7.257v-2.029h7.257v2.029ZM16,19.17c-1.751,0-3.17-1.419-3.17-3.17s1.419-3.17,3.17-3.17,3.17,1.419,3.17,3.17-1.419,3.17-3.17,3.17ZM19.788,8.895h7.257v2.029h-7.257v-2.029Z" />
  <polygon
    fill="var(--m__icon-yellow)"
    points="27.045 6.866 27.045 6.866 27.045 6.293 27.045 4.828 19.788 4.828 19.788 6.866 21.06 6.866 21.06 7.687 21.06 7.687 21.06 8.894 28.317 8.894 28.317 6.866 27.045 6.866" />
  <rect fill="var(--m__icon-yellow)" x="21.06" y="21.093" width="7.257" height="2.037" />
  <rect fill="var(--m__icon-yellow)" x="21.06" y="27.197" width="7.257" height="2.037" />
  <path
    fill="var(--m__icon-yellow)"
    d="M21.06,17.027h-1.272v-2.029h8.529v-2.037h0s-6.808,0-6.808,0h-1.721v-1.977c-1.055-.798-2.364-1.276-3.788-1.276-3.476,0-6.293,2.817-6.293,6.293s2.818,6.293,6.293,6.293c1.424,0,2.733-.479,3.788-1.276v-1.952h1.272v-2.038ZM16,18.062c-1.139,0-2.062-.923-2.062-2.062s.923-2.062,2.062-2.062,2.062.923,2.062,2.062-.923,2.062-2.062,2.062Z" />
</svg>
