<svg xmlns="http://www.w3.org/2000/svg" viewBox="0 0 32 32">
  <path
    fill="currentColor"
    d="M16,4.074c-6.586,0-11.926,5.339-11.926,11.926s5.339,11.925,11.926,11.925,11.925-5.339,11.925-11.925-5.339-11.926-11.925-11.926ZM16,18.858c-1.579,0-2.858-1.28-2.858-2.858s1.28-2.858,2.858-2.858,2.858,1.28,2.858,2.858-1.28,2.858-2.858,2.858Z" />
  <path
    fill="var(--m__icon-yellow-color)"
    d="M16,10.326c-3.134,0-5.674,2.54-5.674,5.674s2.54,5.674,5.674,5.674,5.674-2.541,5.674-5.674-2.541-5.674-5.674-5.674ZM16,17.859c-1.027,0-1.859-.832-1.859-1.859s.832-1.859,1.859-1.859,1.859.832,1.859,1.859-.832,1.859-1.859,1.859Z" />
  <rect x="14.141" y="5.66" width="9.928" height="1.593" fill="var(--m__icon-yellow-color)" />
  <rect x="14.141" y="7.253" width="9.928" height="1.593" fill="currentColor" />
  <rect x="14.141" y="4.074" width="9.928" height="1.586" fill="currentColor" />
  <rect x="14.141" y="13.617" width="9.928" height="1.586" fill="var(--m__icon-white-color)" />
  <rect x="14.141" y="10.439" width="9.928" height="1.586" fill="var(--m__icon-yellow-color)" />
  <rect x="14.141" y="8.846" width="9.928" height="1.593" fill="var(--m__icon-yellow-color)" />
  <rect x="14.141" y="18.382" width="9.928" height="1.593" fill="currentColor" />
  <rect x="14.141" y="12.025" width="9.928" height="1.586" fill="currentColor" />
  <rect x="14.141" y="16.796" width="9.928" height="1.586" fill="var(--m__icon-white-color)" />
  <rect x="14.141" y="15.203" width="9.928" height="1.586" fill="var(--m__icon-yellow-color)" />
  <rect x="14.141" y="21.561" width="9.928" height="1.593" fill="var(--m__icon-yellow-color)" />
  <rect x="14.141" y="23.153" width="9.928" height="1.593" fill="currentColor" />
  <rect x="14.141" y="19.975" width="9.928" height="1.586" fill="currentColor" />
  <rect x="14.141" y="24.746" width="9.928" height="1.586" fill="var(--m__icon-white-color)" />
  <rect x="14.141" y="26.339" width="9.928" height="1.586" fill="var(--m__icon-yellow-color)" />
</svg>
