<svg xmlns="http://www.w3.org/2000/svg" viewBox="0 0 32 32">
  <rect x="3.655" y="13.458" width="4.938" height="5.083" fill="currentColor" />
  <rect x="3.655" y="8.375" width="4.938" height="5.083" fill="currentColor" />
  <rect x="8.593" y="8.375" width="4.938" height="5.083" fill="currentColor" />
  <rect x="8.593" y="13.458" width="4.938" height="5.083" fill="var(--m__icon-yellow-color)" />
  <rect x="18.469" y="13.458" width="4.938" height="5.083" fill="var(--m__icon-yellow-color)" />
  <rect x="13.531" y="18.542" width="4.938" height="5.083" fill="var(--m__icon-yellow-color)" />
  <rect x="13.531" y="8.375" width="4.938" height="5.083" fill="var(--m__icon-yellow-color)" />
  <rect x="13.531" y="3.291" width="4.938" height="5.083" fill="currentColor" />
  <rect x="18.469" y="18.542" width="4.938" height="5.083" fill="currentColor" />
  <rect x="3.656" y="18.541" width="4.938" height="5.061" fill="currentColor" />
  <rect x="8.593" y="3.313" width="4.938" height="5.061" fill="currentColor" />
  <rect x="8.593" y="18.542" width="4.938" height="5.061" fill="currentColor" />
  <rect x="18.469" y="8.386" width="4.938" height="5.072" fill="currentColor" />
  <rect x="18.469" y="3.313" width="4.938" height="5.072" fill="currentColor" />
  <rect x="23.407" y="13.458" width="4.938" height="5.083" fill="currentColor" />
  <rect x="23.407" y="18.542" width="4.938" height="5.083" fill="currentColor" />
  <rect x="13.531" y="23.625" width="4.938" height="5.083" fill="currentColor" />
  <rect x="18.469" y="23.625" width="4.938" height="5.083" fill="currentColor" />
  <rect x="8.593" y="23.625" width="4.938" height="5.061" fill="currentColor" />
  <rect x="23.407" y="8.386" width="4.938" height="5.072" fill="currentColor" />
</svg>
