<svg xmlns="http://www.w3.org/2000/svg" viewBox="0 0 32 32">
  <path
    d="M26.223,9.481c-.159.123-2.96,1.701-2.96,5.211,0,4.059,3.564,5.496,3.671,5.531-.016.088-.566,1.967-1.879,3.882-1.171,1.685-2.394,3.367-4.254,3.367s-2.339-1.081-4.486-1.081c-2.093,0-2.837,1.116-4.538,1.116s-2.889-1.559-4.254-3.474c-1.581-2.249-2.859-5.742-2.859-9.057,0-5.318,3.458-8.138,6.861-8.138,1.808,0,3.315,1.187,4.451,1.187,1.081,0,2.766-1.258,4.823-1.258.78,0,3.581.071,5.424,2.714h0ZM19.822,4.516c.851-1.009,1.453-2.41,1.453-3.811,0-.194-.016-.391-.052-.55-1.384.052-3.031.922-4.024,2.073-.78.886-1.507,2.287-1.507,3.707,0,.213.036.427.052.495.088.016.23.036.372.036,1.242,0,2.804-.832,3.707-1.95h0Z" />
</svg>
