<svg xmlns="http://www.w3.org/2000/svg" viewBox="0 0 32 32">
  <path
    d="M14.046,21.239c-3.264-.396-5.564-2.745-5.564-5.787,0-1.236.445-2.572,1.187-3.462-.321-.816-.272-2.547.099-3.264.989-.124,2.325.396,3.116,1.113.94-.297,1.929-.445,3.141-.445s2.201.148,3.091.42c.767-.692,2.127-1.212,3.116-1.088.346.668.396,2.399.074,3.24.791.94,1.212,2.201,1.212,3.487,0,3.042-2.3,5.342-5.614,5.762.841.544,1.41,1.731,1.41,3.091v2.572c0,.742.618,1.162,1.36.866,4.476-1.706,7.988-6.182,7.988-11.722,0-6.998-5.688-12.711-12.686-12.711-6.998,0-12.637,5.712-12.637,12.711,0,5.49,3.487,10.04,8.185,11.746.668.247,1.311-.198,1.311-.866v-1.978c-.346.148-.791.247-1.187.247-1.632,0-2.597-.89-3.289-2.547-.272-.668-.569-1.063-1.138-1.138-.297-.025-.396-.148-.396-.297,0-.297.495-.519.989-.519.717,0,1.335.445,1.978,1.36.495.717,1.014,1.039,1.632,1.039s1.014-.223,1.583-.791c.42-.42.742-.791,1.039-1.039Z" />
</svg>
