<?xml version="1.0" encoding="UTF-8"?>
<svg id="ring" xmlns="http://www.w3.org/2000/svg" viewBox="0 0 32 32">
  <defs>
    <style>
      .cls-1 {
        fill: #000;
        stroke-width: 0px;
      }
    </style>
  </defs>
  <path class="cls-1" d="M21.675,28.104l-4.143-1.758c.006-.013.016-.036.029-.068,3.99-9.303,2.318-17.214.107-18.253-.974-.451-3.493,1.003-6.482,6.864-2.139,4.195-2.851,6.509-3.074,7.701,1.849-1.147,5.19-4.408,7.251-8.782l4.07,1.918c-2.52,5.35-8.073,11.511-12.015,11.799-1.331.1-2.518-.45-3.219-1.506-.984-1.484-1.536-4.322,2.978-13.175C12.449,2.511,17.213,2.841,19.583,3.952c3.815,1.793,5.466,7.71,4.677,14.575,1.735-1.026,3.829-1.731,6.308-1.731v4.5c-5.777,0-8.661,6.284-8.87,6.76-.007.016-.015.033-.021.049Z"/>
</svg>
