<svg xmlns="http://www.w3.org/2000/svg" viewBox="0 0 32 32">
  <path
    fill="currentColor"
    d="M16,2.774c-7.304,0-13.226,5.921-13.226,13.226s5.921,13.226,13.226,13.226,13.226-5.921,13.226-13.226S23.304,2.774,16,2.774ZM16,19.17c-1.751,0-3.17-1.419-3.17-3.17s1.419-3.17,3.17-3.17,3.17,1.419,3.17,3.17-1.419,3.17-3.17,3.17Z" />
  <path
    fill="var(--m__icon-yellow)"
    d="M16,9.707c-3.476,0-6.293,2.817-6.293,6.293s2.817,6.293,6.293,6.293,6.293-2.818,6.293-6.293-2.818-6.293-6.293-6.293ZM16,18.062c-1.139,0-2.062-.923-2.062-2.062s.923-2.062,2.062-2.062,2.062.923,2.062,2.062-.923,2.062-2.062,2.062Z" />
</svg>
