<?xml version="1.0" encoding="UTF-8"?>
<svg id="Layer_1" data-name="Layer 1" xmlns="http://www.w3.org/2000/svg" viewBox="0 0 32 32">
  <defs>
    <style>
      .cls-1 {
        fill: #000;
        stroke-width: 0px;
      }
    </style>
  </defs>
  <path class="cls-1" d="M18.731,28.452c2.536,0,8.46-5.614,8.46-7.699,0-2.566-.251-10.964.76-12.75,0,0-2.054-1.525-3.932.165-.854.768-1.819,3.629-2.279,6.036-5.24-7.398-13.037,8.374-10.304,10.85,2.268,2.054,5.08,3.399,7.295,3.399Z"/>
  <path class="cls-1" d="M13.176,26.42c-.924-.581-4.795-3.738-7.006-5.949s.295-4.516.295-4.516l8.552,6.967s-.917,4.08-1.841,3.499Z"/>
  <path class="cls-1" d="M11.068,18.322s-5.279-4.752-6.2-5.708,1.746-3.385,1.746-3.385l6.868,6.868-2.414,2.225Z"/>
  <path class="cls-1" d="M13.339,14.818s-6.21-6.961-6.862-7.736,2.276-2.94,2.276-2.94l7.002,8.459-2.416,2.217Z"/>
  <path class="cls-1" d="M18.903,16.392l-7.056-10.93s2.848-2.185,3.378-1.457,6.727,10.419,6.727,10.419l-3.048,1.968Z"/>
</svg>
