<?xml version="1.0" encoding="UTF-8"?>
<svg id="Layer_1" data-name="Layer 1" xmlns="http://www.w3.org/2000/svg" viewBox="0 0 32 32">
  <defs>
    <style>
      .cls-1 {
        fill: #000;
        stroke-width: 0px;
      }
    </style>
  </defs>
  <path class="cls-1" d="M14.936,25.143l1.726-2.86c-.218.023-.439.035-.663.035-3.483,0-6.317-2.834-6.317-6.317,0-2.095,1.029-3.949,2.603-5.099l1.953-3.237-3.751-2.664c-4.029,2.027-6.806,6.19-6.806,11,0,6.792,5.525,12.317,12.317,12.317,1.02,0,2.006-.138,2.955-.373l-4.018-2.802Z"/>
  <path class="cls-1" d="M17.063,6.858l-1.727,2.86c.218-.023.439-.035.663-.035,3.483,0,6.317,2.834,6.317,6.317,0,2.095-1.029,3.949-2.604,5.099l-1.953,3.236,3.75,2.665c4.029-2.027,6.807-6.19,6.807-11,0-6.792-5.525-12.317-12.317-12.317-1.021,0-2.007.138-2.957.374l4.02,2.801Z"/>
</svg>
