<svg width="32" height="32" viewBox="0 0 32 32" fill="none" xmlns="http://www.w3.org/2000/svg">
<path fill-rule="evenodd" clip-rule="evenodd" d="M16 28C9.37258 28 4 22.6274 4 16C4 9.37258 9.37258 4 16 4C22.6274 4 28 9.37258 28 16C28 22.6274 22.6274 28 16 28ZM16 8.71307C20.0247 8.71307 23.2869 11.9754 23.2869 16C23.2869 20.0247 20.0247 23.2869 16 23.2869C11.9754 23.2869 8.71307 20.0247 8.71307 16C8.71307 11.9754 11.9754 8.71307 16 8.71307Z" fill="black"/>
<path fill-rule="evenodd" clip-rule="evenodd" d="M15.9995 21.4545C12.987 21.4545 10.5449 19.0124 10.5449 16C10.5449 12.9875 12.987 10.5454 15.9995 10.5454C19.0119 10.5454 21.454 12.9875 21.454 16C21.454 19.0124 19.0119 21.4545 15.9995 21.4545ZM15.9995 14.1676C17.0117 14.1676 17.8319 14.9878 17.8319 16C17.8319 17.0121 17.0117 17.8323 15.9995 17.8323C14.9873 17.8323 14.1671 17.0121 14.1671 16C14.1671 14.9878 14.9873 14.1676 15.9995 14.1676Z" fill="black"/>
</svg>
