<?xml version="1.0" encoding="UTF-8"?>
<svg id="ring" xmlns="http://www.w3.org/2000/svg" viewBox="0 0 32 32">
  <defs>
    <style>
      .cls-1 {
        fill: #fbb03b;
      }

      .cls-1, .cls-2 {
        stroke-width: 0px;
      }

      .cls-2 {
        fill: #000;
      }
    </style>
  </defs>
  <path class="cls-1" d="M16,9.707c-3.476,0-6.293,2.817-6.293,6.293s2.817,6.293,6.293,6.293,6.293-2.818,6.293-6.293-2.818-6.293-6.293-6.293ZM16,18.062c-1.139,0-2.062-.923-2.062-2.062s.923-2.062,2.062-2.062,2.062.923,2.062,2.062-.923,2.062-2.062,2.062Z"/>
  <path class="cls-2" d="M16,2.774c-7.304,0-13.226,5.922-13.226,13.226s5.921,13.226,13.226,13.226,13.226-5.921,13.226-13.226S23.304,2.774,16,2.774ZM16,22.293c-3.476,0-6.293-2.818-6.293-6.293s2.817-6.293,6.293-6.293,6.293,2.817,6.293,6.293-2.818,6.293-6.293,6.293Z"/>
</svg>
